<svg width="15" height="25" viewBox="0 0 15 25" fill="none" xmlns="http://www.w3.org/2000/svg">
<path d="M13.7491 0.00520167L10.5072 0C6.86505 0 4.51132 2.41487 4.51132 6.15253V8.98926H1.25173C0.970065 8.98926 0.741974 9.21762 0.741974 9.49929V13.6094C0.741974 13.8911 0.970325 14.1191 1.25173 14.1191H4.51132V24.4902C4.51132 24.7719 4.73941 25 5.02108 25H9.27392C9.55559 25 9.78368 24.7716 9.78368 24.4902V14.1191H13.5949C13.8766 14.1191 14.1047 13.8911 14.1047 13.6094L14.1062 9.49929C14.1062 9.36404 14.0524 9.23452 13.9569 9.13881C13.8615 9.0431 13.7314 8.98926 13.5962 8.98926H9.78368V6.58453C9.78368 5.42872 10.0591 4.84197 11.5647 4.84197L13.7486 4.84119C14.03 4.84119 14.2581 4.61284 14.2581 4.33143V0.514965C14.2581 0.233815 14.0303 0.00572184 13.7491 0.00520167Z" fill="#E0E0E0"/>
</svg>
