<svg width="44" height="25" viewBox="0 0 44 25" fill="none" xmlns="http://www.w3.org/2000/svg">
<path d="M43.7666 22.5777C43.7134 22.4634 43.6637 22.3685 43.6176 22.2926C42.8542 20.9233 41.3953 19.2427 39.242 17.2503L39.1965 17.2046L39.1737 17.1823L39.1506 17.1593H39.1275C38.1502 16.2315 37.5313 15.6077 37.2722 15.2883C36.7979 14.6799 36.6917 14.064 36.9509 13.44C37.134 12.9686 37.8218 11.9729 39.0127 10.4517C39.6391 9.64557 40.1353 8.99944 40.5016 8.51264C43.144 5.01431 44.2896 2.77882 43.9381 1.80531L43.8016 1.57782C43.7099 1.44086 43.4732 1.31556 43.0918 1.20129C42.7096 1.08727 42.221 1.06841 41.6252 1.1444L35.0276 1.18979C34.9207 1.15207 34.7681 1.15559 34.5693 1.20129C34.3707 1.247 34.2714 1.26994 34.2714 1.26994L34.1565 1.32707L34.0654 1.39571C33.989 1.4411 33.905 1.52092 33.8133 1.63503C33.722 1.74874 33.6457 1.88218 33.5848 2.03425C32.8665 3.87459 32.0498 5.58564 31.1332 7.16733C30.5681 8.11047 30.0491 8.92784 29.5751 9.61992C29.1018 10.3118 28.7047 10.8215 28.3842 11.1482C28.0632 11.4753 27.7736 11.7373 27.5134 11.9352C27.2537 12.1332 27.0554 12.2169 26.9181 12.1863C26.7805 12.1557 26.6509 12.1253 26.5283 12.095C26.3146 11.958 26.1427 11.7717 26.0131 11.536C25.883 11.3003 25.7954 11.0036 25.7495 10.6462C25.704 10.2885 25.677 9.98086 25.6693 9.7222C25.6622 9.46386 25.6654 9.09844 25.6809 8.62699C25.6968 8.1553 25.704 7.83615 25.704 7.66882C25.704 7.09077 25.7153 6.46342 25.738 5.78661C25.7611 5.10979 25.7798 4.57354 25.7954 4.17848C25.811 3.78302 25.8182 3.36462 25.8182 2.92353C25.8182 2.48245 25.7913 2.13653 25.738 1.88546C25.6853 1.63471 25.6045 1.39131 25.4981 1.15535C25.3909 0.919622 25.2342 0.737274 25.0284 0.607824C24.8223 0.478534 24.566 0.375933 24.261 0.299702C23.4515 0.117274 22.4206 0.0185883 21.168 0.00324613C18.3275 -0.0271186 16.5023 0.155549 15.6928 0.55101C15.3721 0.718095 15.0819 0.94639 14.8224 1.23517C14.5474 1.56991 14.509 1.75257 14.7076 1.78262C15.6241 1.91934 16.2729 2.2464 16.6547 2.76348L16.7923 3.03748C16.8994 3.23517 17.0063 3.58517 17.1132 4.08698C17.22 4.5888 17.2889 5.14391 17.3193 5.75201C17.3955 6.86248 17.3955 7.81306 17.3193 8.60382C17.2428 9.3949 17.1706 10.0107 17.1017 10.4518C17.0327 10.8929 16.9297 11.2503 16.7923 11.524C16.6547 11.7978 16.5632 11.9651 16.5173 12.0258C16.4715 12.0866 16.4333 12.1248 16.4029 12.1399C16.2044 12.2156 15.998 12.2542 15.7843 12.2542C15.5703 12.2542 15.3108 12.1476 15.0054 11.9346C14.7001 11.7216 14.3832 11.4289 14.0548 11.0562C13.7264 10.6835 13.356 10.1626 12.9435 9.49342C12.5313 8.82428 12.1036 8.03344 11.6607 7.1209L11.2943 6.45911C11.0652 6.03336 10.7522 5.41344 10.3551 4.59991C9.95779 3.78605 9.60658 2.99881 9.30127 2.23833C9.17922 1.91894 8.99588 1.67578 8.75155 1.50846L8.63689 1.43982C8.56066 1.37909 8.43829 1.3146 8.27043 1.24588C8.10233 1.17724 7.92693 1.12802 7.7435 1.09773L1.46645 1.14312C0.825021 1.14312 0.389803 1.28783 0.160639 1.57686L0.0689256 1.71358C0.0231089 1.78973 0 1.91135 0 2.07876C0 2.24608 0.0458167 2.45144 0.13753 2.6946C1.05386 4.83931 2.05036 6.90771 3.12701 8.90011C4.20366 10.8925 5.13925 12.4975 5.93322 13.7135C6.72735 14.9304 7.5368 16.0789 8.36158 17.1584C9.18637 18.2384 9.73232 18.9305 9.99943 19.2345C10.2669 19.5391 10.4769 19.7668 10.6296 19.9189L11.2025 20.4664C11.569 20.8315 12.1072 21.2687 12.8174 21.7781C13.5278 22.2878 14.3142 22.7897 15.1771 23.2844C16.0402 23.7783 17.0442 24.1813 18.1898 24.493C19.3352 24.8051 20.45 24.9303 21.5345 24.8699H24.1691C24.7034 24.8239 25.1082 24.6566 25.3833 24.3678L25.4745 24.2535C25.5358 24.1627 25.5932 24.0217 25.6461 23.8319C25.6997 23.6418 25.7263 23.4324 25.7263 23.2045C25.7107 22.5507 25.7607 21.9613 25.875 21.4367C25.9891 20.9122 26.1193 20.5167 26.2648 20.2504C26.4103 19.9843 26.5745 19.7597 26.7572 19.5777C26.9403 19.3953 27.0708 19.2848 27.1473 19.2467C27.2234 19.2085 27.2841 19.1825 27.3299 19.1669C27.6965 19.0453 28.1278 19.1631 28.6247 19.5208C29.1211 19.8782 29.5867 20.3196 30.0223 20.8441C30.4576 21.3691 30.9806 21.9581 31.5914 22.6119C32.2025 23.2661 32.7369 23.7523 33.195 24.0722L33.653 24.3459C33.9588 24.5286 34.3559 24.6959 34.8448 24.848C35.3327 25 35.7602 25.038 36.1273 24.962L41.9918 24.8709C42.5718 24.8709 43.0232 24.7753 43.3433 24.5855C43.6641 24.3954 43.8547 24.186 43.9161 23.9581C43.9774 23.7301 43.9807 23.4713 43.9278 23.1821C43.8734 22.8935 43.8199 22.6918 43.7666 22.5777Z" fill="#E0E0E0"/>
</svg>
